<svg width="402" height="114" viewBox="0 0 402 114" fill="none" xmlns="http://www.w3.org/2000/svg">
<path opacity="0.5" d="M266.277 72.88C266.277 33.343 255.862 1.29221 243.016 1.29221C230.169 1.29221 219.755 33.343 219.755 72.88C219.755 95.0376 224.163 113 229.601 113C235.039 113 239.448 95.0376 239.448 72.88C239.448 33.343 229.034 1.29221 216.187 1.29221C203.34 1.29221 192.926 33.343 192.926 72.88C192.926 95.0376 197.334 113 202.773 113C208.211 113 212.619 95.0376 212.619 72.88C212.619 33.343 202.141 1.29221 189.216 1.29221C176.29 1.29221 165.812 33.343 165.812 72.88C165.812 95.0376 170.22 113 175.659 113C181.097 113 185.505 95.0376 185.505 72.88C185.505 33.343 175.091 1.29221 162.244 1.2922C149.398 1.2922 138.984 33.343 138.984 72.88C138.984 95.0376 143.392 113 148.83 113C154.268 113 158.677 95.0376 158.677 72.88C158.677 33.343 148.262 1.2922 135.416 1.2922C122.569 1.2922 112.155 33.343 112.155 72.88C112.155 95.0376 116.564 113 122.001 113C127.439 113 131.848 95.0376 131.848 72.88C131.848 33.343 121.433 1.2922 108.588 1.2922C95.7408 1.2922 85.3262 33.343 85.3262 72.88C85.3262 95.0376 89.7349 113 95.1732 113C100.611 113 105.019 95.0376 105.019 72.88C105.019 33.343 94.5416 1.2922 81.6163 1.2922C68.6909 1.2922 58.2123 33.343 58.2123 72.88M401 72.88C401 33.343 390.586 1.29221 377.739 1.29221C364.893 1.29221 354.478 33.343 354.478 72.88C354.478 95.0376 358.887 113 364.325 113C369.763 113 374.172 95.0376 374.172 72.88C374.172 33.343 363.757 1.29221 350.911 1.29221C338.064 1.29221 327.649 33.343 327.649 72.88C327.649 95.0376 332.058 113 337.496 113C342.934 113 347.343 95.0376 347.343 72.88C347.343 33.343 336.865 1.29221 323.939 1.29221C311.014 1.29221 300.535 33.343 300.535 72.88C300.535 95.0376 304.944 113 310.382 113C315.821 113 320.229 95.0376 320.229 72.88C320.229 33.343 309.815 1.29221 296.968 1.2922C284.121 1.2922 273.707 33.343 273.707 72.88C273.707 95.0376 278.115 113 283.554 113C288.992 113 293.401 95.0376 293.401 72.88C293.401 33.343 282.986 1.2922 270.139 1.2922C257.292 1.2922 246.879 33.343 246.879 72.88C246.879 95.0376 251.287 113 256.725 113C262.163 113 266.572 95.0376 266.572 72.88C266.572 33.343 256.157 1.2922 243.311 1.2922C230.464 1.2922 220.05 33.343 220.05 72.88C220.05 95.0376 224.458 113 229.897 113C235.334 113 239.743 95.0376 239.743 72.88C239.743 33.343 229.265 1.2922 216.34 1.2922C203.414 1.2922 192.936 33.343 192.936 72.88M104.788 72.5878C104.788 33.0508 94.3737 1 81.527 1C68.6804 1 58.2661 33.0508 58.2661 72.5878C58.2661 94.7454 62.6745 112.708 68.1127 112.708C73.5509 112.708 77.9594 94.7454 77.9594 72.5878C77.9594 33.0508 67.5451 1 54.6985 1C41.8517 1 31.4371 33.0508 31.4371 72.5878C31.4371 94.7454 35.8458 112.708 41.2842 112.708C46.7223 112.708 51.1308 94.7454 51.1308 72.5878C51.1308 33.0508 40.6526 1 27.7272 1C14.8019 1 4.32324 33.0508 4.32324 72.5878C4.32324 94.7454 8.73193 112.708 14.1703 112.708C19.6086 112.708 24.0165 94.7454 24.0165 72.5878C24.0165 33.0508 13.6026 1 0.755859 1" stroke="#A1A6B4" stroke-linecap="round"/>
</svg>
