<svg width="32" height="26" viewBox="0 0 32 26" fill="none" xmlns="http://www.w3.org/2000/svg">
<path d="M31.243 3.48438C30.0978 3.99092 28.8834 4.32359 27.64 4.47138C28.9506 3.68753 29.9315 2.4539 30.4 1.00038C29.17 1.73238 27.8215 2.24538 26.416 2.52288C25.4719 1.51275 24.2205 0.842823 22.8564 0.617255C21.4923 0.391688 20.0919 0.623115 18.8729 1.27556C17.6538 1.928 16.6845 2.9649 16.1156 4.22507C15.5467 5.48523 15.4101 6.89805 15.727 8.24388C13.2326 8.11886 10.7925 7.47066 8.56489 6.34137C6.33732 5.21209 4.37215 3.62695 2.79696 1.68888C2.23939 2.64655 1.94639 3.73522 1.94796 4.84338C1.94796 7.01838 3.05496 8.93988 4.73796 10.0649C3.74197 10.0335 2.76791 9.76455 1.89696 9.28038V9.35838C1.89726 10.8069 2.39851 12.2108 3.31573 13.332C4.23295 14.4531 5.50968 15.2226 6.92946 15.5099C6.00488 15.7604 5.03542 15.7974 4.09446 15.6179C4.49476 16.8647 5.27497 17.9552 6.32584 18.7365C7.37672 19.5179 8.64565 19.9511 9.95496 19.9754C8.65368 20.9974 7.16372 21.7529 5.57028 22.1986C3.97683 22.6444 2.31115 22.7718 0.668457 22.5734C3.536 24.4175 6.8741 25.3966 10.2835 25.3934C21.823 25.3934 28.1335 15.8339 28.1335 7.54338C28.1335 7.27338 28.126 7.00038 28.114 6.73338C29.3423 5.84563 30.4024 4.74591 31.2445 3.48588L31.243 3.48438Z" fill="#A1A6B4"/>
</svg>
